<?xml version="1.0" encoding="utf-8"?>
<!-- Generator: Adobe Illustrator 16.0.0, SVG Export Plug-In . SVG Version: 6.00 Build 0)  -->
<!DOCTYPE svg PUBLIC "-//W3C//DTD SVG 1.1//EN" "http://www.w3.org/Graphics/SVG/1.1/DTD/svg11.dtd">
<svg version="1.1" id="Vector_Smart_Object_xA0_Image_1_"
	 xmlns="http://www.w3.org/2000/svg" xmlns:xlink="http://www.w3.org/1999/xlink" x="0px" y="0px" width="615px" height="693px"
	 viewBox="0 0 615 693" enable-background="new 0 0 615 693" xml:space="preserve">
<g>
	<path fill="#FFFFFF" d="M474.092,204.304c-0.305,11.814-5.433,20.618-15.329,26.552c-1.824,1.093-2.459,2.204-2.454,4.286
		c0.063,32.228,0.059,64.458,0.009,96.679c-0.003,1.936,0.49,3.104,2.265,4.132c11.452,6.612,17.244,18.818,15.188,31.646
		c-1.972,12.295-11.8,22.396-24.528,24.814c-7.381,1.406-14.53,0.285-20.999-3.684c-1.971-1.207-3.36-0.996-5.207,0.072
		c-27.706,16.047-55.442,32.055-83.208,48.002c-1.899,1.09-2.612,2.293-2.608,4.506c0.03,15.508-11.938,29.004-26.889,30.506
		c-15.922,1.604-30-8.396-33.439-23.854c-0.528-2.375-0.706-4.855-0.761-7.291c-0.039-1.645-0.497-2.656-1.961-3.506
		c-28.152-16.191-56.28-32.424-84.396-48.684c-1.523-0.885-2.72-0.889-4.254,0.037c-18.37,11.059-41.788,0.457-45.683-20.201
		c-2.46-13.049,2.854-25.256,14.532-32.127c1.847-1.088,2.681-2.187,2.677-4.443c-0.083-32.229-0.071-64.456-0.021-96.682
		c0.002-1.938-0.501-3.081-2.273-4.11c-11.729-6.812-17.243-18.646-14.991-31.935c2.235-13.2,12.445-22.883,25.729-24.773
		c7.121-1.013,13.986,0.284,20.148,4.218c1.431,0.915,2.494,0.887,3.951,0.047c28.033-16.223,56.089-32.398,84.167-48.538
		c1.697-0.976,2.359-2.098,2.364-4.098c0.048-17.751,14.071-31.336,31.845-30.979c13.852,0.277,26.812,11.711,28.778,25.381
		c0.18,1.257,0.461,2.03,0.461,3.762c0,3.789,1.396,5.396,4.347,7.082c27.244,15.588,54.41,31.3,81.563,47.039
		c1.864,1.082,3.221,1.129,5.162,0.025c18.441-10.52,40.802-0.438,45.29,20.375C473.985,200.498,473.945,202.535,474.092,204.304z
		 M233.671,314.867c-0.278,0.236-0.466,0.442-0.699,0.571c-15.282,8.829-30.555,17.681-45.893,26.409
		c-0.848,0.479-2.497,0.379-3.356-0.142c-4.055-2.449-8.369-4.074-13.094-4.2c-15.718-0.401-25.278,12.439-25.813,23.592
		c-0.622,13.063,9.263,26.445,25.249,26.324c14.02-0.102,24.688-11.344,24.549-25.369c-0.023-2.506,0.713-3.924,2.913-5.172
		c16.287-9.275,32.51-18.662,48.718-28.071c1.566-0.914,2.826-1.062,4.531-0.261c10.106,4.75,20.56,5.556,31.334,2.51
		c1.07-0.301,2.492,0.004,3.564,0.461c3.168,1.349,6.193,3.061,9.383,4.346c1.818,0.736,2.432,1.729,2.428,3.66
		c-0.055,25.403-0.053,50.803-0.005,76.204c0.002,1.791-0.563,2.81-2.198,3.594c-8.561,4.125-15.019,14.771-13.257,26.16
		c2.046,13.227,15.638,23.219,28.749,20.654c11.555-2.26,19.146-10.145,20.771-22.281c1.102-8.229-2.859-19.098-13.444-24.537
		c-1.434-0.732-2.226-1.535-2.221-3.301c0.053-24.674,0.056-49.346,0-74.016c-0.002-2.193,1.006-2.643,2.925-2.982
		c5.071-0.891,10.152-1.87,15.106-3.262c2.24-0.626,4.014-0.718,6.186,0.217c10.861,4.675,21.44,3.874,31.556-2.23
		c1.445-0.868,2.48-0.907,3.932-0.061c13.363,7.782,26.753,15.531,40.199,23.167c2.174,1.23,3.017,2.594,2.95,5.146
		c-0.387,14.761,12.484,26.821,27.496,25.224c14.735-1.566,25.174-15.752,21.756-30.094c-4.097-17.188-22.714-24.94-37.752-15.652
		c-1.585,0.979-2.73,1.243-4.42,0.256c-12.726-7.437-25.481-14.817-38.29-22.11c-1.893-1.073-2.145-2.074-1.543-4.104
		c3.863-13.016,1.239-24.592-8.081-34.562c-1.821-1.949-10.366-15.597-11.558-18.113c-0.942-1.99-0.544-3.053,1.354-4.141
		c19.419-11.121,38.811-22.297,58.168-33.525c1.56-0.901,2.618-0.918,4.146,0.109c5.456,3.664,11.572,4.821,17.989,3.698
		c12.492-2.188,21.547-13.492,20.433-26.835c-1.21-14.476-15.41-25.296-29.591-22.158c-12.444,2.755-20.262,12.482-20.119,25.268
		c0.021,2.18-0.585,3.423-2.527,4.532c-19.664,11.25-39.279,22.577-58.859,33.974c-1.767,1.025-2.731,0.814-4.151-0.555
		c-9.227-8.888-20.326-13.88-32.992-15.462c-4.273-0.538-4.275-0.514-4.275-4.926c-0.002-23.125,0.056-46.25-0.069-69.373
		c-0.016-3.228,0.738-5.098,3.761-6.835c10.842-6.229,14.965-19.642,10.003-31.076c-5.003-11.535-17.783-17.698-29.77-14.047
		c-10.909,3.321-16.989,11.03-18.061,22.245c-0.823,8.655,3.271,18.27,13.149,23.667c1.517,0.828,2.576,1.557,2.568,3.639
		c-0.083,25.495-0.077,50.984-0.013,76.479c0.004,2.021-0.917,2.705-2.565,3.539c-4.933,2.487-10.224,4.661-14.41,8.124
		c-4.83,3.987-9.345,6.291-16.07,6.291c-0.656-0.021-1.077,0.044-1.76,0.028c-1.667-0.036-3.539-0.105-4.901-0.884
		c-19.837-11.313-39.566-22.812-59.428-34.087c-2.837-1.608-4.207-3.331-3.733-6.602c0.188-1.303-0.213-2.697-0.425-4.04
		c-1.939-12.214-13.885-22.432-28.305-20.061c-14.145,2.327-23.125,15.128-20.793,28.829c2.977,17.499,22.945,26.357,38.012,16.786
		c1.7-1.081,2.876-1.166,4.617-0.149c14.932,8.708,29.924,17.313,44.896,25.953c2.565,1.481,5.123,2.976,7.673,4.456
		C223.089,273.919,221.158,293.494,233.671,314.867z"/>
	<path fill="#FFFFFF" d="M275.034,255.974c3.936,0.35,5.896-0.976,8.771-3.646c12.416-11.54,27.065-15.113,43.147-9.771
		c15.812,5.251,25.616,16.487,28.865,32.971c0.634,3.229,1.904,5.169,4.788,6.813c8.243,4.695,12.993,14.854,11.361,23.315
		c-2.114,10.959-9.297,18.555-19.456,20.164c-5.41,0.86-10.782,0.245-15.544-2.688c-2.133-1.314-3.822-1.17-6.025-0.247
		c-14.146,5.946-27.842,4.937-40.859-3.251c-1.999-1.259-3.672-1.357-5.836-0.648c-18.345,5.991-37.425-4.417-42.084-22.713
		C236.825,275.298,253.559,255.016,275.034,255.974z"/>
	<path fill="#FFFFFF" d="M436.637,362.519c-0.002-4.102,2.949-7.086,6.988-7.074c3.889,0.016,7.199,3.227,7.239,7.027
		c0.042,3.656-3.496,7.191-7.184,7.197C439.735,369.67,436.64,366.529,436.637,362.519z"/>
	<path fill="#FFFFFF" d="M299.567,125.427c0.016-3.975,3.113-7.041,7.119-7.045c4.009-0.002,7.086,3.056,7.1,7.047
		c0.012,3.825-3.328,7.206-7.088,7.161C302.875,132.552,299.554,129.211,299.567,125.427z"/>
	<path fill="#FFFFFF" d="M176.709,362.551c-0.015,4-3.14,7.15-7.063,7.119c-3.708-0.033-7.137-3.494-7.153-7.229
		c-0.021-3.729,3.372-6.996,7.265-6.996C173.792,355.447,176.725,358.445,176.709,362.551z"/>
	<path fill="#FFFFFF" d="M306.762,434.521c4.001,0.027,7.042,3.072,7.021,7.033c-0.023,3.947-3.111,6.918-7.165,6.895
		c-4.022-0.023-7.097-3.092-7.052-7.037C299.613,437.488,302.745,434.494,306.762,434.521z"/>
	<path fill="#FFFFFF" d="M169.838,211.4c-4.055,0.037-7.226-2.917-7.345-6.837c-0.119-3.818,3.088-7.023,7.087-7.082
		c4.172-0.062,7.073,2.72,7.132,6.835C176.773,208.449,173.943,211.365,169.838,211.4z"/>
	<path fill="#FFFFFF" d="M443.536,211.412c-4.099-0.03-6.94-2.949-6.901-7.084c0.043-4.104,2.951-6.896,7.125-6.842
		c4,0.055,7.186,3.232,7.092,7.07C450.755,208.447,447.564,211.439,443.536,211.412z"/>
</g>
<g enable-background="new    ">
	<path fill="#FFFFFF" d="M87.889,530.289c-1.658,1.364-2.486,3.168-2.486,5.414c0,2.248,1.013,4.033,3.039,5.359
		c2.025,1.325,6.702,2.892,14.032,4.695c7.329,1.806,13.02,4.513,17.071,8.121c4.05,3.609,6.077,8.877,6.077,15.8
		c0,6.925-2.597,12.541-7.79,16.85c-5.193,4.311-12.026,6.464-20.496,6.464c-12.229,0-23.241-4.529-33.037-13.59l10.275-12.596
		c8.322,7.292,16.021,10.938,23.093,10.938c3.166,0,5.651-0.681,7.458-2.045c1.804-1.361,2.707-3.204,2.707-5.523
		c0-2.32-0.958-4.16-2.873-5.524c-1.916-1.361-5.709-2.743-11.38-4.143c-8.988-2.137-15.563-4.917-19.723-8.344
		c-4.163-3.425-6.243-8.801-6.243-16.131c0-7.329,2.634-12.981,7.9-16.96c5.266-3.979,11.84-5.967,19.722-5.967
		c5.155,0,10.313,0.884,15.47,2.651c5.154,1.769,9.648,4.272,13.479,7.514l-8.729,12.596c-6.704-5.083-13.628-7.624-20.772-7.624
		C91.811,528.245,89.546,528.927,87.889,530.289z"/>
	<path fill="#FFFFFF" d="M168.379,529.793v62.315h-17.236v-62.315h-21.877v-14.916h60.99v14.916H168.379z"/>
	<path fill="#FFFFFF" d="M261.742,581.446c-7.81,7.624-17.422,11.437-28.839,11.437c-11.418,0-21.03-3.813-28.838-11.437
		c-7.809-7.624-11.712-17.106-11.712-28.451c0-11.343,3.903-20.827,11.712-28.45c7.808-7.624,17.419-11.437,28.838-11.437
		c11.417,0,21.029,3.813,28.839,11.437c7.807,7.624,11.712,17.107,11.712,28.45C273.454,564.34,269.549,573.822,261.742,581.446z
		 M255.886,553.051c0-6.887-2.21-12.762-6.629-17.623c-4.42-4.861-9.854-7.292-16.297-7.292c-6.446,0-11.877,2.431-16.297,7.292
		c-4.419,4.861-6.629,10.736-6.629,17.623c0,6.889,2.21,12.745,6.629,17.567c4.42,4.825,9.851,7.237,16.297,7.237
		c6.444,0,11.877-2.412,16.297-7.237C253.676,565.796,255.886,559.938,255.886,553.051z"/>
	<path fill="#FFFFFF" d="M346.707,540.51c0,12.375-4.899,20.368-14.695,23.977l19.557,27.622h-21.214l-17.126-24.64h-11.933v24.64
		H284.06v-77.231h29.28c12.005,0,20.568,2.026,25.688,6.076C344.147,525.006,346.707,531.523,346.707,540.51z M325.936,549.68
		c2.135-1.915,3.203-4.953,3.203-9.115c0-4.161-1.104-7.017-3.313-8.563c-2.209-1.548-6.076-2.32-11.603-2.32h-12.927v22.871h12.596
		C319.783,552.552,323.797,551.596,325.936,549.68z"/>
	<path fill="#FFFFFF" d="M362.397,529.681v-14.807h40.218v50.385c0,9.208-2.376,16.095-7.127,20.661
		c-4.751,4.567-10.847,6.851-18.285,6.851c-9.281,0-17.386-3.572-24.309-10.718l8.95-12.375c4.641,5.011,9.502,7.514,14.584,7.514
		c2.432,0,4.512-0.938,6.243-2.817c1.729-1.879,2.597-4.695,2.597-8.452v-36.24L362.397,529.681L362.397,529.681z"/>
	<path fill="#FFFFFF" d="M416.481,590.176c-1.879-1.878-2.817-4.181-2.817-6.905s0.938-5.027,2.817-6.906
		c1.879-1.878,4.18-2.816,6.906-2.816c2.724,0,5.026,0.938,6.903,2.816c1.88,1.879,2.818,4.183,2.818,6.906
		c0,2.726-0.938,5.027-2.818,6.905c-1.877,1.878-4.181,2.816-6.903,2.816C420.659,592.992,418.36,592.052,416.481,590.176z"/>
	<path fill="#FFFFFF" d="M444.821,514.877h17.236v77.231h-17.236V514.877z"/>
	<path fill="#FFFFFF" d="M542.05,581.446c-7.81,7.624-17.421,11.437-28.838,11.437c-11.419,0-21.03-3.813-28.838-11.437
		c-7.809-7.624-11.713-17.106-11.713-28.451c0-11.343,3.904-20.827,11.713-28.45c7.808-7.624,17.419-11.437,28.838-11.437
		c11.417,0,21.028,3.813,28.838,11.437c7.807,7.624,11.712,17.107,11.712,28.45C553.762,564.34,549.857,573.822,542.05,581.446z
		 M536.195,553.051c0-6.887-2.21-12.762-6.63-17.623c-4.419-4.861-9.853-7.292-16.297-7.292c-6.446,0-11.878,2.431-16.297,7.292
		c-4.42,4.861-6.63,10.736-6.63,17.623c0,6.889,2.21,12.745,6.63,17.567c4.419,4.825,9.851,7.237,16.297,7.237
		c6.444,0,11.878-2.412,16.297-7.237C533.985,565.796,536.195,559.938,536.195,553.051z"/>
</g>
</svg>
