<?xml version="1.0" encoding="utf-8"?>
<!-- Generator: Adobe Illustrator 16.0.0, SVG Export Plug-In . SVG Version: 6.00 Build 0)  -->
<!DOCTYPE svg PUBLIC "-//W3C//DTD SVG 1.1//EN" "http://www.w3.org/Graphics/SVG/1.1/DTD/svg11.dtd">
<svg version="1.1" id="Vector_Smart_Object_xA0_Image_1_"
	 xmlns="http://www.w3.org/2000/svg" xmlns:xlink="http://www.w3.org/1999/xlink" x="0px" y="0px" width="615px" height="693px"
	 viewBox="0 0 615 693" enable-background="new 0 0 615 693" xml:space="preserve">
<g>
	<path fill="#FFFFFF" d="M476.87,204.304c-0.303,11.815-5.431,20.619-15.329,26.552c-1.823,1.093-2.459,2.204-2.453,4.286
		c0.063,32.228,0.059,64.458,0.009,96.679c-0.003,1.935,0.49,3.104,2.265,4.132c11.452,6.612,17.244,18.818,15.187,31.645
		c-1.973,12.295-11.801,22.396-24.528,24.815c-7.381,1.406-14.532,0.285-20.999-3.684c-1.971-1.207-3.362-0.996-5.207,0.072
		c-27.708,16.047-55.443,32.055-83.21,48.002c-1.898,1.09-2.611,2.293-2.607,4.506c0.029,15.508-11.938,29.004-26.89,30.506
		c-15.922,1.603-30-8.397-33.438-23.854c-0.528-2.375-0.706-4.855-0.761-7.291c-0.039-1.644-0.497-2.656-1.962-3.505
		c-28.151-16.192-56.279-32.424-84.394-48.684c-1.525-0.885-2.72-0.889-4.254,0.037c-18.37,11.059-41.788,0.457-45.683-20.201
		c-2.46-13.049,2.854-25.256,14.531-32.127c1.848-1.088,2.682-2.187,2.678-4.443c-0.083-32.229-0.071-64.456-0.02-96.682
		c0.002-1.937-0.501-3.081-2.274-4.11c-11.728-6.812-17.243-18.647-14.991-31.935c2.234-13.2,12.444-22.883,25.727-24.773
		c7.123-1.013,13.988,0.284,20.15,4.218c1.431,0.915,2.494,0.886,3.951,0.046c28.032-16.222,56.089-32.398,84.167-48.538
		c1.696-0.975,2.358-2.097,2.363-4.097c0.049-17.751,14.073-31.336,31.846-30.979c13.852,0.278,26.812,11.711,28.777,25.381
		c0.181,1.257,0.461,2.03,0.461,3.762c0,3.789,1.396,5.396,4.348,7.082c27.244,15.588,54.409,31.3,81.563,47.039
		c1.864,1.082,3.219,1.129,5.162,0.025c18.44-10.519,40.802-0.438,45.29,20.375C476.764,200.498,476.724,202.535,476.87,204.304z
		 M236.45,314.867c-0.278,0.236-0.467,0.442-0.699,0.571c-15.282,8.829-30.556,17.681-45.894,26.409
		c-0.846,0.479-2.497,0.379-3.355-0.141c-4.056-2.45-8.369-4.075-13.094-4.201c-15.719-0.401-25.278,12.44-25.813,23.592
		c-0.622,13.063,9.261,26.445,25.249,26.324c14.018-0.101,24.686-11.343,24.549-25.369c-0.024-2.506,0.711-3.924,2.913-5.172
		c16.287-9.275,32.508-18.662,48.716-28.071c1.568-0.914,2.828-1.062,4.533-0.261c10.106,4.75,20.558,5.556,31.334,2.51
		c1.07-0.301,2.492,0.004,3.564,0.461c3.168,1.349,6.192,3.06,9.383,4.346c1.817,0.736,2.432,1.729,2.428,3.66
		c-0.055,25.403-0.053,50.803-0.005,76.204c0.002,1.791-0.565,2.809-2.198,3.594c-8.561,4.125-15.019,14.771-13.257,26.16
		c2.046,13.226,15.636,23.219,28.749,20.654c11.553-2.26,19.144-10.144,20.771-22.281c1.103-8.229-2.858-19.098-13.443-24.537
		c-1.435-0.733-2.227-1.535-2.221-3.301c0.053-24.674,0.056-49.346,0-74.016c-0.003-2.193,1.006-2.642,2.925-2.982
		c5.07-0.891,10.151-1.87,15.105-3.262c2.242-0.626,4.015-0.718,6.187,0.217c10.86,4.675,21.439,3.874,31.556-2.231
		c1.445-0.868,2.48-0.907,3.93-0.06c13.365,7.782,26.753,15.531,40.201,23.167c2.174,1.23,3.015,2.594,2.95,5.145
		c-0.388,14.761,12.483,26.822,27.496,25.224c14.734-1.566,25.174-15.752,21.756-30.094c-4.097-17.188-22.714-24.94-37.752-15.652
		c-1.585,0.978-2.732,1.243-4.42,0.256c-12.727-7.437-25.481-14.818-38.29-22.111c-1.894-1.073-2.146-2.074-1.543-4.104
		c3.863-13.015,1.239-24.592-8.081-34.561c-1.823-1.95-10.367-15.597-11.558-18.114c-0.942-1.99-0.545-3.052,1.354-4.14
		c19.419-11.121,38.809-22.297,58.168-33.526c1.558-0.901,2.618-0.918,4.146,0.11c5.456,3.664,11.574,4.821,17.991,3.698
		c12.492-2.188,21.545-13.492,20.431-26.835c-1.21-14.476-15.409-25.296-29.591-22.158c-12.443,2.755-20.26,12.482-20.119,25.267
		c0.023,2.18-0.585,3.423-2.526,4.533c-19.664,11.25-39.281,22.577-58.861,33.973c-1.765,1.026-2.73,0.815-4.15-0.554
		c-9.228-8.888-20.326-13.88-32.992-15.462c-4.275-0.538-4.277-0.514-4.277-4.926c-0.002-23.125,0.057-46.25-0.068-69.373
		c-0.017-3.228,0.737-5.098,3.761-6.835c10.842-6.229,14.965-19.642,10.003-31.076c-5.003-11.535-17.784-17.698-29.771-14.047
		c-10.908,3.321-16.988,11.03-18.059,22.245c-0.825,8.655,3.271,18.27,13.149,23.667c1.517,0.828,2.575,1.557,2.567,3.639
		c-0.083,25.495-0.077,50.984-0.011,76.479c0.004,2.021-0.917,2.705-2.567,3.539c-4.931,2.488-10.222,4.661-14.409,8.124
		c-4.83,3.988-9.346,6.291-16.07,6.291c-0.656-0.021-1.077,0.044-1.76,0.029c-1.667-0.037-3.539-0.106-4.901-0.884
		c-19.837-11.313-39.568-22.812-59.428-34.087c-2.837-1.609-4.207-3.331-3.733-6.602c0.188-1.302-0.213-2.697-0.425-4.04
		c-1.941-12.214-13.885-22.431-28.305-20.06c-14.144,2.327-23.125,15.128-20.793,28.829c2.977,17.499,22.944,26.357,38.012,16.786
		c1.7-1.081,2.876-1.166,4.617-0.149c14.932,8.708,29.924,17.313,44.896,25.953c2.565,1.481,5.123,2.975,7.671,4.456
		C225.868,273.919,223.937,293.494,236.45,314.867z"/>
	<path fill="#FFFFFF" d="M277.813,255.974c3.937,0.35,5.897-0.975,8.773-3.646c12.416-11.54,27.064-15.113,43.146-9.771
		c15.813,5.251,25.618,16.488,28.867,32.971c0.632,3.229,1.904,5.169,4.788,6.813c8.243,4.695,12.993,14.853,11.361,23.315
		c-2.114,10.959-9.297,18.554-19.456,20.164c-5.41,0.86-10.782,0.245-15.544-2.689c-2.133-1.314-3.822-1.17-6.025-0.247
		c-14.146,5.947-27.842,4.937-40.861-3.251c-1.999-1.258-3.672-1.357-5.836-0.648c-18.343,5.991-37.424-4.417-42.084-22.713
		C239.605,275.298,256.338,255.016,277.813,255.974z"/>
	<path fill="#FFFFFF" d="M439.415,362.519c-0.002-4.102,2.949-7.086,6.988-7.074c3.89,0.015,7.201,3.226,7.241,7.027
		c0.042,3.656-3.496,7.192-7.184,7.197C442.514,369.669,439.419,366.529,439.415,362.519z"/>
	<path fill="#FFFFFF" d="M302.346,125.427c0.014-3.974,3.113-7.041,7.119-7.044c4.009-0.002,7.086,3.055,7.098,7.046
		c0.013,3.826-3.328,7.206-7.086,7.162C305.655,132.552,302.333,129.211,302.346,125.427z"/>
	<path fill="#FFFFFF" d="M179.488,362.55c-0.013,4-3.138,7.151-7.063,7.119c-3.708-0.033-7.137-3.494-7.155-7.229
		c-0.021-3.73,3.374-6.996,7.266-6.996C176.572,355.447,179.504,358.445,179.488,362.55z"/>
	<path fill="#FFFFFF" d="M309.541,434.521c4.001,0.027,7.042,3.072,7.021,7.033c-0.022,3.947-3.11,6.918-7.165,6.895
		c-4.021-0.024-7.095-3.092-7.05-7.037C302.392,437.488,305.525,434.494,309.541,434.521z"/>
	<path fill="#FFFFFF" d="M172.617,211.4c-4.056,0.037-7.225-2.917-7.346-6.837c-0.119-3.818,3.088-7.023,7.087-7.082
		c4.172-0.061,7.075,2.72,7.133,6.835C179.552,208.449,176.722,211.365,172.617,211.4z"/>
	<path fill="#FFFFFF" d="M446.318,211.412c-4.099-0.03-6.941-2.949-6.903-7.084c0.043-4.104,2.951-6.896,7.125-6.842
		c4,0.055,7.187,3.232,7.093,7.07C453.533,208.447,450.343,211.439,446.318,211.412z"/>
</g>
<g enable-background="new    ">
	<path fill="#FFFFFF" d="M164.033,530.289c-1.658,1.364-2.486,3.168-2.486,5.414c0,2.248,1.012,4.033,3.039,5.359
		c2.024,1.325,6.702,2.892,14.032,4.695c7.328,1.806,13.019,4.513,17.07,8.121c4.05,3.609,6.077,8.877,6.077,15.8
		c0,6.925-2.597,12.541-7.79,16.85c-5.192,4.311-12.025,6.464-20.496,6.464c-12.228,0-23.241-4.529-33.037-13.59l10.275-12.596
		c8.323,7.292,16.021,10.938,23.093,10.938c3.166,0,5.652-0.681,7.458-2.044c1.804-1.362,2.707-3.205,2.707-5.524
		c0-2.32-0.958-4.16-2.873-5.524c-1.916-1.361-5.709-2.743-11.38-4.143c-8.988-2.137-15.562-4.917-19.722-8.344
		c-4.163-3.425-6.243-8.801-6.243-16.131c0-7.329,2.633-12.981,7.9-16.96c5.266-3.979,11.84-5.967,19.722-5.967
		c5.155,0,10.312,0.884,15.469,2.651c5.155,1.769,9.649,4.272,13.479,7.514l-8.729,12.596c-6.704-5.082-13.628-7.624-20.771-7.624
		C167.955,528.245,165.69,528.927,164.033,530.289z"/>
	<path fill="#FFFFFF" d="M244.302,529.793v62.315h-17.236v-62.315h-21.877v-14.916h60.99v14.916H244.302z"/>
	<path fill="#FFFFFF" d="M337.444,581.446c-7.809,7.624-17.421,11.437-28.838,11.437c-11.418,0-21.03-3.813-28.837-11.437
		c-7.809-7.624-11.712-17.106-11.712-28.451c0-11.343,3.903-20.827,11.712-28.45c7.808-7.624,17.419-11.437,28.837-11.437
		c11.417,0,21.029,3.813,28.838,11.437c7.808,7.624,11.714,17.107,11.714,28.45C349.156,564.34,345.25,573.822,337.444,581.446z
		 M331.588,553.052c0-6.888-2.21-12.763-6.629-17.624c-4.42-4.861-9.854-7.292-16.298-7.292c-6.446,0-11.877,2.431-16.298,7.292
		c-4.419,4.861-6.629,10.736-6.629,17.624s2.21,12.744,6.629,17.566c4.421,4.825,9.852,7.237,16.298,7.237
		c6.443,0,11.878-2.412,16.298-7.237C329.378,565.796,331.588,559.938,331.588,553.052z"/>
	<path fill="#FFFFFF" d="M422.188,540.51c0,12.375-4.899,20.368-14.694,23.977l19.558,27.622h-21.215l-17.126-24.64h-11.934v24.64
		H359.54v-77.231h29.279c12.005,0,20.568,2.026,25.688,6.076C419.628,525.006,422.188,531.523,422.188,540.51z M401.415,549.68
		c2.137-1.915,3.204-4.953,3.204-9.115c0-4.161-1.104-7.017-3.313-8.563c-2.21-1.548-6.077-2.32-11.602-2.32h-12.929v22.871h12.597
		C395.265,552.552,399.279,551.596,401.415,549.68z"/>
	<path fill="#FFFFFF" d="M437.656,529.681v-14.807h40.218v50.385c0,9.208-2.375,16.095-7.126,20.661
		c-4.751,4.567-10.848,6.851-18.285,6.851c-9.281,0-17.386-3.572-24.309-10.718l8.949-12.375c4.641,5.011,9.502,7.514,14.585,7.514
		c2.431,0,4.511-0.938,6.242-2.817c1.729-1.879,2.597-4.695,2.597-8.452v-36.24L437.656,529.681L437.656,529.681z"/>
</g>
</svg>
