<?xml version="1.0" encoding="utf-8"?>
<!-- Generator: Adobe Illustrator 16.0.4, SVG Export Plug-In . SVG Version: 6.00 Build 0)  -->
<!DOCTYPE svg PUBLIC "-//W3C//DTD SVG 1.1//EN" "http://www.w3.org/Graphics/SVG/1.1/DTD/svg11.dtd">
<svg version="1.1" id="Vector_Smart_Object_xA0_Image_1_"
	 xmlns="http://www.w3.org/2000/svg" xmlns:xlink="http://www.w3.org/1999/xlink" x="0px" y="0px" width="800px" height="800px"
	 viewBox="-92.5 -53.5 800 800" enable-background="new -92.5 -53.5 800 800" xml:space="preserve">
<g>
	<path fill="#FFFFFF" d="M640.314,189.192c-0.605,23.477-10.795,40.97-30.461,52.762c-3.625,2.17-4.887,4.379-4.877,8.516
		c0.124,64.04,0.118,128.086,0.018,192.112c-0.006,3.845,0.974,6.169,4.5,8.21c22.757,13.14,34.267,37.395,30.18,62.884
		c-3.919,24.431-23.447,44.503-48.741,49.309c-14.665,2.794-28.872,0.566-41.727-7.319c-3.915-2.398-6.677-1.98-10.347,0.145
		c-55.056,31.886-110.171,63.695-165.344,95.385c-3.775,2.164-5.19,4.556-5.185,8.954c0.062,30.815-23.72,57.633-53.43,60.617
		c-31.639,3.187-59.613-16.685-66.448-47.399c-1.049-4.719-1.403-9.647-1.512-14.488c-0.077-3.268-0.988-5.277-3.896-6.966
		c-55.942-32.175-111.835-64.43-167.703-96.74c-3.027-1.758-5.404-1.766-8.453,0.074c-36.504,21.974-83.038,0.907-90.776-40.143
		c-4.888-25.93,5.669-50.187,28.877-63.84c3.669-2.161,5.327-4.345,5.319-8.83c-0.166-64.041-0.142-128.082-0.041-192.117
		c0.003-3.849-0.996-6.122-4.518-8.168c-23.305-13.534-34.264-37.052-29.79-63.457c4.443-26.229,24.73-45.47,51.126-49.228
		c14.15-2.012,27.792,0.565,40.038,8.381c2.842,1.818,4.956,1.762,7.851,0.094c55.706-32.237,111.455-64.379,167.25-96.451
		c3.372-1.939,4.687-4.168,4.697-8.143c0.095-35.273,27.961-62.268,63.279-61.558c27.525,0.551,53.277,23.271,57.186,50.434
		c0.357,2.498,0.917,4.035,0.917,7.475c0,7.529,2.772,10.724,8.638,14.073c54.135,30.975,108.118,62.195,162.073,93.471
		c3.704,2.15,6.4,2.243,10.258,0.051c36.645-20.903,81.076-0.872,89.996,40.488C640.101,181.628,640.021,185.676,640.314,189.192z
		 M162.57,408.892c-0.553,0.469-0.926,0.878-1.389,1.134c-30.367,17.545-60.716,35.134-91.194,52.479
		c-1.684,0.95-4.962,0.752-6.669-0.282c-8.058-4.867-16.631-8.096-26.019-8.346c-31.233-0.799-50.23,24.718-51.294,46.88
		c-1.236,25.956,18.406,52.55,50.173,52.308c27.859-0.201,49.057-22.539,48.781-50.41c-0.046-4.979,1.417-7.799,5.789-10.277
		c32.364-18.432,64.601-37.084,96.808-55.781c3.112-1.816,5.616-2.108,9.004-0.518c20.083,9.438,40.854,11.04,62.265,4.987
		c2.126-0.598,4.952,0.008,7.082,0.917c6.295,2.678,12.308,6.08,18.645,8.634c3.614,1.463,4.832,3.437,4.825,7.273
		c-0.109,50.479-0.105,100.95-0.01,151.426c0.004,3.56-1.12,5.583-4.368,7.142c-17.011,8.196-29.843,29.353-26.343,51.982
		c4.065,26.283,31.074,46.14,57.128,41.043c22.961-4.49,38.043-20.159,41.274-44.275c2.189-16.352-5.682-37.949-26.715-48.758
		c-2.849-1.456-4.423-3.051-4.413-6.559c0.104-49.03,0.11-98.056,0-147.079c-0.004-4.357,1.998-5.25,5.812-5.926
		c10.077-1.769,20.175-3.716,30.018-6.48c4.452-1.244,7.978-1.426,12.292,0.43c21.583,9.29,42.605,7.699,62.705-4.432
		c2.872-1.725,4.929-1.803,7.812-0.119c26.556,15.463,53.162,30.861,79.882,46.035c4.319,2.445,5.995,5.152,5.862,10.225
		c-0.77,29.331,24.807,53.296,54.637,50.121c29.28-3.111,50.023-31.3,43.232-59.799c-8.141-34.156-45.136-49.56-75.018-31.103
		c-3.149,1.944-5.427,2.471-8.782,0.509c-25.288-14.777-50.636-29.444-76.088-43.937c-3.761-2.134-4.261-4.122-3.065-8.155
		c7.676-25.863,2.463-48.867-16.059-68.679c-3.619-3.874-20.6-30.993-22.967-35.993c-1.872-3.956-1.08-6.066,2.689-8.228
		c38.589-22.1,77.121-44.307,115.588-66.619c3.099-1.792,5.202-1.825,8.239,0.216c10.84,7.282,22.995,9.581,35.747,7.35
		c24.822-4.349,42.814-26.81,40.602-53.324c-2.404-28.765-30.622-50.266-58.801-44.032c-24.729,5.475-40.262,24.805-39.979,50.21
		c0.041,4.331-1.163,6.801-5.021,9.005c-39.077,22.355-78.053,44.864-116.961,67.51c-3.511,2.037-5.429,1.618-8.248-1.103
		c-18.336-17.662-40.391-27.582-65.56-30.724c-8.492-1.07-8.497-1.022-8.497-9.789c-0.004-45.952,0.111-91.904-0.137-137.853
		c-0.032-6.413,1.467-10.129,7.472-13.582c21.545-12.376,29.738-39.03,19.878-61.751c-9.941-22.922-35.337-35.169-59.155-27.913
		c-21.679,6.6-33.76,21.918-35.889,44.204c-1.636,17.2,6.5,36.304,26.129,47.029c3.014,1.646,5.12,3.094,5.104,7.231
		c-0.165,50.661-0.153,101.311-0.026,151.973c0.008,4.015-1.821,5.376-5.097,7.033c-9.801,4.943-20.315,9.262-28.634,16.143
		c-9.598,7.923-18.569,12.5-31.934,12.5c-1.304-0.043-2.141,0.088-3.498,0.057c-3.312-0.072-7.032-0.21-9.739-1.757
		c-39.418-22.479-78.623-45.328-118.09-67.734c-5.637-3.196-8.359-6.619-7.418-13.118c0.375-2.589-0.423-5.36-0.844-8.028
		c-3.854-24.271-27.591-44.574-56.246-39.863c-28.106,4.624-45.952,30.062-41.317,57.287c5.915,34.772,45.595,52.375,75.534,33.356
		c3.378-2.148,5.714-2.317,9.174-0.298c29.671,17.304,59.462,34.404,89.212,51.572c5.098,2.943,10.18,5.913,15.247,8.854
		C141.543,327.523,137.706,366.422,162.57,408.892z"/>
	<path fill="#FFFFFF" d="M244.764,291.866c7.82,0.694,11.715-1.938,17.43-7.247c24.672-22.93,53.781-30.031,85.739-19.414
		c31.419,10.434,50.902,32.761,57.358,65.516c1.259,6.415,3.783,10.27,9.514,13.538c16.381,9.33,25.819,29.515,22.576,46.33
		c-4.201,21.776-18.473,36.87-38.661,40.068c-10.75,1.709-21.425,0.487-30.888-5.342c-4.237-2.612-7.595-2.325-11.973-0.491
		c-28.109,11.815-55.325,9.81-81.192-6.461c-3.973-2.501-7.296-2.696-11.597-1.288c-36.453,11.905-74.367-8.777-83.625-45.133
		C168.838,330.262,202.09,289.963,244.764,291.866z"/>
	<path fill="#FFFFFF" d="M565.886,503.582c-0.003-8.149,5.86-14.08,13.887-14.057c7.728,0.031,14.306,6.412,14.385,13.964
		c0.084,7.265-6.946,14.291-14.274,14.303C572.042,517.792,565.892,511.55,565.886,503.582z"/>
	<path fill="#FFFFFF" d="M293.512,32.454c0.031-7.898,6.186-13.991,14.146-13.999c7.965-0.004,14.08,6.072,14.109,14.003
		c0.022,7.601-6.614,14.319-14.086,14.229C300.087,46.613,293.487,39.972,293.512,32.454z"/>
	<path fill="#FFFFFF" d="M49.38,503.644c-0.029,7.948-6.238,14.209-14.035,14.147c-7.369-0.067-14.182-6.943-14.215-14.367
		c-0.042-7.41,6.701-13.901,14.436-13.901C43.584,489.529,49.412,495.486,49.38,503.644z"/>
	<path fill="#FFFFFF" d="M307.809,646.658c7.952,0.055,13.994,6.105,13.954,13.976c-0.047,7.845-6.183,13.747-14.238,13.701
		c-7.993-0.047-14.102-6.144-14.013-13.984C293.603,652.554,299.829,646.604,307.809,646.658z"/>
	<path fill="#FFFFFF" d="M35.727,203.292c-8.057,0.073-14.358-5.796-14.595-13.586c-0.236-7.587,6.136-13.957,14.083-14.073
		c8.29-0.122,14.055,5.405,14.172,13.582C49.507,197.427,43.884,203.222,35.727,203.292z"/>
	<path fill="#FFFFFF" d="M579.596,203.315c-8.145-0.061-13.792-5.861-13.713-14.076c0.085-8.154,5.863-13.703,14.157-13.596
		c7.949,0.108,14.278,6.423,14.093,14.049C593.942,197.424,587.599,203.37,579.596,203.315z"/>
</g>
</svg>
